<?xml version="1.0" encoding="UTF-8"?><svg id="Layer_2" xmlns="http://www.w3.org/2000/svg" viewBox="0 0 916.26 275.6"><g id="Layer_1-2"><path d="M744.84,275.6c-11.47-1.04-22.77-2.82-33.99-5.34l-.02-.98,32.73-21.57c62.27,14.01,127.83-21.82,135.49-87.94,8.51-73.49-40-121.38-111.41-123.95-61.32-2.2-122.59,10.2-183.55,15.51-20.1,1.75-40.28,2.41-60.46,2.92,1.89,1.91,4.57,2.51,6.76,4.16,4.67,3.53,7.44,8.81,8.24,14.58l.04,101.9c.27,9.54,7.12,12.77,15.7,9.82,1.47-.5,3.31-1.97,4.49-2.31,1.02-.29.72.55.73,1.22.95,36.46-59.81,40.4-57.83.98l.03-130.36c-13.03-.16-26.08.21-39.12.02-66.04-.95-132.24-5.78-196.99-19.1-10.53-2.17-21-4.72-31.47-7.13.81,2.78,2.46,5.19,3.41,7.99,1.87,5.49,3.09,13.13,3.4,18.93,2.43,44.85.61,92.61,0,136.93-1.16,14.56-4.78,30.58-16.53,40.28-6.17,5.09-15.6,8.04-23.31,4.85,5.13-6.63,8.13-15.04,9.16-23.36,2.72-22.03-7.59-33.9-21.06-49.22-20.17-22.93-41.87-44.57-61.9-67.62l-1.48-.33.02,125.99c-1.1,10.62-3.94,20.96-10.02,29.79-6.58,9.55-18.22,17.77-30.31,14.12-.45-.52,3.82-7.07,4.46-8.41,4.3-9.01,5.78-19.78,6.22-29.7,2.16-48.14-1.62-97.83.02-146.13-.76-11.64-2.07-23.26-9.53-32.71l-7-7.31c13.3-4.82,24.98-15.02,32.06-27.19l98.34,106.3c1.1.2.67-.48.72-1.2,1.73-23.64-.85-49.92-.55-73.72-1.55-11.77-7.02-22.65-17.9-28.22L219.47,0c40.82,12.86,83.22,20.54,125.76,25.55,51.92,6.12,104.27,8.67,156.55,8.31V11.29L538.69.37v32.52c34.41-1.11,68.63-5.24,102.63-10.27,57.61-8.54,126.28-24.57,183.29-7.82,104.48,30.7,122.73,161.07,38.7,226.32-27.38,21.25-59.31,32-93.71,34.48"/><path d="M744.59,93.08c.94.22.93-.34,1.37-.82,10.36-11.36,20.38-18.23,36.75-17.14,20.23,1.35,29.73,15.06,30.84,34.22,1.39,24.11-1.14,49.41.14,73.64.97,8.1,5.53,11.12,13.46,11.06-5.52,23.52-48.12,26.29-50.5-.74-1.92-21.85,1.63-46.44.01-68.46-.45-6.16-2.69-12.38-9.22-14.09-6.04-1.58-11.62-.06-16.69,3.27-1.79,1.17-5.92,4.41-6.19,6.44,1.07,21.49-1.35,44.21.03,65.55.56,8.69,3.36,17.12,6.79,25h-50.02c2.64-7.84,5.73-15.65,6.31-24.03,1.7-24.57-1.28-50.98.03-75.75-.54-4.8-1.21-9.69-2.69-14.3-1.03-3.22-2.92-6.04-3.65-9.21l43.22-12.62v17.96Z"/><path d="M318.6,75.27c47.59-3.89,76.39,46.51,64.44,89.17-16.28,58.11-90.6,65.77-115.75,9.88-18.2-40.45,4.27-95.21,51.31-99.06ZM308.38,101.45c-4.65.73-9.02,4.72-11.13,8.78-10.36,19.99,8.37,68.05,30.68,74.36,18.96,5.35,25.38-12.1,24.28-27.66-1.38-19.42-19.87-59.24-43.83-55.47Z"/><path d="M620.18,75.27c47.76-3.94,76.29,46.44,64.44,89.17-14.27,51.48-77.91,66.44-109.42,21.03-28.05-40.43-7.15-105.9,44.98-110.2ZM610.44,101.46c-12.73,1.73-15.13,17.37-14.47,27.81,1.22,19.56,17.85,57.71,41.56,56.07,17.3-1.2,17.57-23.79,15.05-36.45-3.49-17.53-20.61-50.36-42.14-47.43Z"/><path d="M442.53,100.85c.89.19.95-.27,1.37-.81,1.42-1.81,2.56-4.6,4.05-6.63,8.26-11.26,20.64-18.36,34.88-18.29v39.32c-15.64-4.83-32.43,1.53-40.09,16,.5,18.14-1.42,37.6-.21,55.6.58,8.68,3.36,17.13,6.79,25h-50.5c3.47-7.67,6.31-15.97,6.82-24.49,1.5-24.86-1.17-51.22-.03-76.23-.88-7.97-2.77-15.61-6.79-22.57l43.71-12.63v25.73Z"/><path d="M51.61,44.54c-5.62,21.57-40.26,20.79-48.81,1.94-7.1-15.66-.25-32.83,15.45-39.41,21.35-8.94,42.01,3.45,62.74,4.94,5.75.41,11.92-.3,17.72.01-2.63,5.93-7.24,11.71-12.79,15.13-7.07,4.35-15.71,5.1-23.82,4.22-6.51-.7-15.64-4.26-21.8-3.22-8,1.35-8.9,11.42-1.66,15.02.45.23,3.3,1.37,3.49,1.37h9.47Z"/></g></svg>