<?xml version="1.0" encoding="UTF-8"?><svg id="Layer_2" xmlns="http://www.w3.org/2000/svg" viewBox="0 0 3771.55 1134.45"><defs><style>.cls-1{fill:#e8ae00;}</style></defs><g id="Layer_2-2"><g id="Layer_1-2"><path class="cls-1" d="M3065.96,1134.44c-47.2-4.29-93.71-11.61-139.92-21.97l-.07-4.03,134.73-88.79c256.33,57.67,526.18-89.81,557.71-362,35.03-302.51-164.66-499.65-458.59-510.2-252.39-9.05-504.6,42.01-755.54,63.85-82.75,7.2-165.81,9.93-248.86,12.02,7.76,7.86,18.82,10.34,27.81,17.14,19.21,14.52,30.62,36.25,33.91,60.02l.15,419.46c1.11,39.25,29.31,52.55,64.62,40.43,6.05-2.08,13.63-8.13,18.49-9.5,4.2-1.19,2.95,2.28,3.02,5,3.91,150.07-246.21,166.28-238.06,4.04l.11-536.61c-53.62-.65-107.37.87-161.01.09-271.83-3.92-544.32-23.79-810.88-78.63-43.35-8.92-86.45-19.41-129.54-29.35,3.35,11.44,10.13,21.38,14.05,32.89,7.7,22.58,12.71,54.04,14,77.92,10,184.61-7.73,378.11,0,563.64-4.77,59.92-19.67,125.86-68.02,165.79-25.4,20.97-64.23,33.1-95.94,19.96,21.1-27.29,33.46-61.89,37.69-96.16,11.21-90.68-31.24-139.56-86.68-202.59-83.01-94.37-172.36-183.44-254.81-278.36l-6.07-1.36.07,518.61c-4.54,43.7-16.22,86.27-41.25,122.62-27.07,39.31-75.01,73.15-124.75,58.11-1.85-2.15,15.72-29.12,18.34-34.6,17.7-37.07,23.79-81.43,25.62-122.25,8.87-198.17-6.67-402.68.1-601.51-3.15-47.9-8.52-95.75-39.22-134.63l-28.81-30.11c54.76-19.84,102.82-61.83,131.95-111.91l404.78,437.57c4.52.84,2.75-1.97,2.97-4.95,7.11-97.3-3.48-205.5-2.28-303.46-6.38-48.45-28.92-93.25-73.67-116.17L903.39,0c168.02,52.93,342.57,84.53,517.66,105.16,213.71,25.18,429.22,35.69,644.41,34.22V46.47L2217.38,1.51v133.88c141.63-4.58,282.52-21.55,422.45-42.29,237.13-35.16,519.81-101.13,754.47-32.17,430.07,126.38,505.2,663.03,159.3,931.59-112.69,87.49-244.14,131.74-385.73,141.93"/><path class="cls-1" d="M3064.94,383.16c3.87.91,3.85-1.41,5.63-3.37,42.64-46.78,83.89-75.05,151.27-70.55,83.27,5.56,122.38,61.97,126.93,140.87,5.73,99.24-4.71,203.39.58,303.14,3.98,33.33,22.75,45.76,55.42,45.53-22.72,96.8-198.09,108.22-207.86-3.04-7.9-89.94,6.71-191.15.05-281.78-1.87-25.38-11.08-50.94-37.94-57.99-24.85-6.52-47.82-.24-68.71,13.48-7.36,4.83-24.35,18.16-25.46,26.5,4.41,88.45-5.55,182,.12,269.84,2.31,35.77,13.84,70.47,27.97,102.92h-205.89c10.88-32.29,23.58-64.4,25.97-98.93,6.99-101.12-5.26-209.86.12-311.79-2.2-19.78-4.99-39.87-11.07-58.87-4.24-13.27-12.01-24.85-15.02-37.93l177.91-51.97v73.93h-.02Z"/><path class="cls-1" d="M1311.45,309.82c195.88-16.02,314.46,191.45,265.26,367.06-67.02,239.2-372.94,270.74-476.46,40.68-74.92-166.48,17.58-391.9,211.2-407.74ZM1269.36,417.6c-19.12,3.01-37.13,19.42-45.8,36.14-42.66,82.28,34.46,280.13,126.28,306.07,78.03,22.04,104.47-49.81,99.93-113.87-5.67-79.95-81.78-243.85-180.4-228.33h-.01Z"/><path class="cls-1" d="M2552.8,309.82c196.61-16.22,314.03,191.14,265.26,367.06-58.75,211.89-320.68,273.49-450.39,86.55-115.47-166.42-29.42-435.91,185.13-453.61h0ZM2512.75,417.64c-52.4,7.14-62.26,71.5-59.57,114.46,5.04,80.5,73.49,237.55,171.08,230.79,71.23-4.94,72.31-97.94,61.95-150.02-14.35-72.17-84.83-207.31-173.46-195.23Z"/><path class="cls-1" d="M1821.59,415.13c3.68.79,3.91-1.12,5.65-3.34,5.83-7.45,10.55-18.93,16.68-27.29,34-46.36,84.96-75.58,143.59-75.27v161.85c-64.38-19.89-133.47,6.31-165.01,65.84,2.04,74.65-5.86,154.78-.88,228.86,2.4,35.72,13.81,70.5,27.96,102.93h-207.89c14.29-31.58,25.97-65.73,28.08-100.81,6.17-102.31-4.8-210.82-.12-313.79-3.63-32.79-11.39-64.25-27.96-92.91l179.91-51.97v105.9h-.01Z"/><path class="cls-1" d="M212.43,183.34c-23.15,88.77-165.71,85.59-200.9,7.99C-17.69,126.89,10.48,56.21,75.14,29.12c87.89-36.82,172.9,14.22,258.25,20.32,23.68,1.69,49.07-1.21,72.94.05-10.82,24.4-29.8,48.22-52.63,62.26-29.1,17.89-64.65,20.99-98.03,17.39-26.81-2.89-64.39-17.54-89.73-13.26-32.94,5.57-36.62,46.99-6.84,61.83,1.87.93,13.58,5.63,14.36,5.63h38.98-.01Z"/><path class="cls-1" d="M1177.93,1013.56h27.99v99.91h-21.99v-64.94l-4-2.02c-3.63,1.65-17.66,29.4-23.1,34.88-1.65,1.67-1.84,2.82-4.85,2.1-7.21-12.78-15.15-28.38-26.02-37.95v67.94h-21.99v-99.91l25.98,1.01,25,34.92,22.99-35.93h-.01Z"/><path class="cls-1" d="M1327.33,1012.05c71.87-11.31,84,93.5,19,102.89-72.89,10.54-83.05-92.81-19-102.89h0ZM1333.44,1031.97c-38.03,3.74-34.31,65.69,5.34,63.6,39.99-2.11,37.61-67.82-5.34-63.6Z"/><path class="cls-1" d="M1657.19,1012.09c72.45-9.56,81.57,96.33,15.27,103.16-72.32,7.44-78.84-94.77-15.27-103.16h0ZM1661.19,1031.97c-39,5.72-32.32,66.96,7.24,63.42,41.12-3.68,33.59-69.42-7.24-63.42Z"/><path class="cls-1" d="M1850.58,1013.56c30.65,5.09,34.47,53.15,4.95,63l24.04,36.89-25.98-.99c-10.2-10.65-17.11-36.84-33.99-34.96v35.97h-21.99v-99.91c16.09,1.88,37.63-2.55,52.97,0h0ZM1819.59,1059.53c10.71-.88,32.38,4.73,33.97-11.19,1.88-18.79-21.78-14.48-33.97-14.8v26h0Z"/><path class="cls-1" d="M2819.08,1043.52c-5.67-.65-13.38,1.26-18.63-.36-4.18-1.29-4.7-6.91-8.75-9.24-11.19-6.43-36.44-.23-26.75,12.76,8.72,11.69,50.2,3.91,55.66,30.27,9.86,47.67-77.68,52.39-81.48,6.55l20.57-.05c6.42,14.78,32.47,18.07,39.49,2.94,1.09-11.53-29.16-13.52-38.59-17.38-13.21-5.4-20.64-13.41-19.52-28.45,2.95-39.48,78.42-38.79,78.01,2.95h-.01Z"/><polygon class="cls-1" points="2665.16 1013.56 2665.16 1033.54 2619.18 1033.54 2619.18 1053.52 2661.16 1053.52 2661.16 1073.51 2619.18 1073.51 2619.18 1093.49 2665.16 1093.49 2665.16 1113.47 2597.19 1113.47 2597.19 1013.56 2665.16 1013.56"/><path class="cls-1" d="M2375.31,1047.52l-20.58.04c-21.1-34.16-67.35-8.82-54.36,27.93,6.42,18.17,28.81,26.34,44.88,14.92,4-2.84,6.54-9.61,9.4-10.59,5.32-1.82,14.68.57,20.66-.31-6.47,41.05-66.31,47.76-88.82,15.85-15.33-21.74-12.32-57.6,9.88-73.79,26.65-19.44,74.22-9.44,78.95,25.96h0Z"/><path class="cls-1" d="M2051.47,1047.52c-6.29-.73-14.69,1.34-20.57-.4-6.91-2.05-10.67-15.13-26.45-15.66-43.54-1.47-40.78,70.64,3.57,63.56,14.23-2.27,18.38-13.78,22.85-15.15,5.69-1.76,14.43.43,20.61-.36-15.54,53.41-95.48,45.63-99.92-11.02-4.89-62.5,81.6-79.7,99.92-20.97h-.01Z"/><path class="cls-1" d="M2155.42,1082.5l-35.98-68.92,24.01.95c4.07,2.48,14.09,30.29,17.56,36.39,1.26,2.22,2.21,5.05,5.38,4.61l18.8-40.75,3.13-1.38c5.82.74,12.49-.59,18.11.14,2.77.36,3.48-1.09,2.92,2.94l-33.94,66v30.97h-19.99v-30.97.02Z"/><polygon class="cls-1" points="1539.74 1013.56 1539.74 1033.54 1511.76 1033.54 1511.76 1113.47 1489.77 1113.47 1489.77 1033.54 1461.79 1033.54 1461.79 1013.56 1539.74 1013.56"/><polygon class="cls-1" points="2477.26 1013.56 2477.26 1093.49 2519.23 1093.49 2519.23 1113.47 2455.27 1113.47 2455.27 1013.56 2477.26 1013.56"/></g></g></svg>