<?xml version="1.0" encoding="UTF-8"?><svg id="Layer_2" xmlns="http://www.w3.org/2000/svg" viewBox="0 0 64.88 64.88"><defs><style>.cls-1{fill:#fff;}.cls-2{fill:#00abdf;}</style></defs><g id="Layer_1-2"><circle class="cls-2" cx="32.44" cy="32.44" r="32.44"/><path class="cls-1" d="M50.16,23.33c0-3.83-3.04-6.94-6.79-6.94-5.09-.22-2.04-.32-7.35-.32h-1.66c-5.3,0-7.75.1-12.84.32-3.75,0-6.79,3.11-6.79,6.94-.22,3.04-.32,6.07-.32,9.11,0,3.04.09,6.07.32,9.11,0,3.83,3.04,6.93,6.79,6.93,5.35.24,8.09.34,13.67.33,5.58.01,2.82-.09,8.18-.33,3.75,0,6.79-3.1,6.79-6.93.23-3.05.33-6.08.32-9.11,0-3.04-.09-6.07-.32-9.11ZM42.4,33.9l-12.95,7.75c-1.36.82-2.48.16-2.48-1.46l-.02-15.48c0-1.62,1.11-2.28,2.48-1.48l12.97,7.72c1.36.81,1.36,2.14,0,2.95Z"/></g></svg>