<?xml version="1.0" encoding="UTF-8"?><svg id="Layer_2" xmlns="http://www.w3.org/2000/svg" viewBox="0 0 64.88 64.88"><defs><style>.cls-1{fill:#fff;}.cls-2{fill:#00abdf;}</style></defs><g id="Layer_1-2"><circle class="cls-2" cx="32.44" cy="32.44" r="32.44"/><path class="cls-1" d="M43.52,15.52h-22.15c-3.47,0-6.3,2.76-6.3,6.14v21.57c0,3.38,2.84,6.14,6.3,6.14h22.15c3.47,0,6.3-2.76,6.3-6.14v-21.57c0-3.38-2.84-6.14-6.3-6.14ZM39.43,20.28c0-.77.61-1.34,1.42-1.35,1.38,0,2.76,0,4.14,0,.72,0,1.28.45,1.4,1.12.01.07.02.14.02.21,0,1.32,0,2.64,0,3.96,0,.67-.47,1.2-1.16,1.32-.09.02-.18.02-.27.02-.69,0-1.38,0-2.07,0s-1.38,0-2.07,0c-.62,0-1.29-.42-1.4-1.15,0-.06-.01-.13-.01-.19,0-1.31,0-2.63,0-3.95ZM32.44,25.56c3.86,0,6.98,2.97,6.98,6.64s-3.12,6.63-6.99,6.63c-3.86,0-6.97-2.96-6.98-6.63,0-3.6,3.07-6.63,6.98-6.63ZM46.41,29.73v11.79c0,.87,0,1.74,0,2.61,0,.64-.45,1.17-1.11,1.3-.13.03-.26.03-.39.03-4.01,0-8.02,0-12.03,0-4.29,0-8.59,0-12.88,0-.19,0-.37-.01-.55-.07-.54-.16-.92-.61-.96-1.15,0-.07,0-.14,0-.21v-14.48h3.15c-.71,2.75-.37,5.38,1.08,7.85,1.03,1.76,2.5,3.12,4.36,4.1,1.84.96,3.82,1.41,5.92,1.29,3.51-.2,6.32-1.65,8.46-4.3,2.04-2.72,2.64-5.7,1.83-8.95h3.14v.17Z"/></g></svg>